<svg xmlns="http://www.w3.org/2000/svg" width="1200" height="700" viewBox="0 0 1200 700"><defs><linearGradient id="g" x1="0" x2="1"><stop stop-color="#111827"/><stop offset="1" stop-color="#020617"/></linearGradient><filter id="s"><feDropShadow dx="0" dy="20" stdDeviation="20" flood-color="#000" flood-opacity=".55"/></filter></defs><rect width="1200" height="700" fill="url(#g)"/><g opacity=".35"><path d="M0 520 C240 420 360 620 600 500 S980 390 1200 470 V700 H0Z" fill="#e30613"/><circle cx="980" cy="120" r="250" fill="#1d4ed8"/></g><g filter="url(#s)" transform="translate(680 100)"><path d="M120 0 220 160 410 190 260 300 310 500 120 390 -70 500 -20 300 -170 190 20 160Z" fill="#fff"/><path d="M120 80 185 185 310 210 210 285 240 410 120 335 0 410 30 285 -70 210 55 185Z" fill="#1e40af"/><path d="M120 35 150 150 90 150Z" fill="#e30613"/></g><text x="70" y="190" font-family="Arial Black" font-size="58" fill="white">NEWS & GUIDE</text><text x="74" y="250" font-family="Arial" font-size="26" fill="#cbd5e1">Article 1</text><rect x="76" y="300" rx="10" width="170" height="56" fill="#e30613"/><text x="112" y="337" font-family="Arial Black" font-size="20" fill="white">SHOP NOW</text></svg>
